<svg viewBox="0 0 400 500" xmlns="http://www.w3.org/2000/svg">
  <defs>
    <!-- Photorealistic lighting gradients -->
    <linearGradient id="studioFloor" x1="0%" y1="0%" x2="0%" y2="100%">
      <stop offset="0%" style="stop-color:#e8e8e8;stop-opacity:1"/>
      <stop offset="100%" style="stop-color:#d0d0d0;stop-opacity:1"/>
    </linearGradient>
    <linearGradient id="cdCaseShine" x1="0%" y1="0%" x2="100%" y2="0%">
      <stop offset="0%" style="stop-color:#ffffff;stop-opacity:0.4"/>
      <stop offset="15%" style="stop-color:#ffffff;stop-opacity:0"/>
      <stop offset="85%" style="stop-color:#ffffff;stop-opacity:0"/>
      <stop offset="100%" style="stop-color:#000000;stop-opacity:0.15"/>
    </linearGradient>
    <linearGradient id="coverGradPony" x1="0%" y1="0%" x2="100%" y2="100%">
      <stop offset="0%" style="stop-color:#ff9ed8;stop-opacity:1"/>
      <stop offset="50%" style="stop-color:#e066b0;stop-opacity:1"/>
      <stop offset="100%" style="stop-color:#c04090;stop-opacity:1"/>
    </linearGradient>
    <linearGradient id="spineGrad" x1="0%" y1="0%" x2="100%" y2="0%">
      <stop offset="0%" style="stop-color:#404040;stop-opacity:1"/>
      <stop offset="50%" style="stop-color:#606060;stop-opacity:1"/>
      <stop offset="100%" style="stop-color:#303030;stop-opacity:1"/>
    </linearGradient>
    <linearGradient id="cdDisc" x1="0%" y1="0%" x2="100%" y2="100%">
      <stop offset="0%" style="stop-color:#f8f8f8;stop-opacity:1"/>
      <stop offset="20%" style="stop-color:#e0e0e0;stop-opacity:1"/>
      <stop offset="40%" style="stop-color:#d0d0d0;stop-opacity:1"/>
      <stop offset="60%" style="stop-color:#c8c8c8;stop-opacity:1"/>
      <stop offset="80%" style="stop-color:#e0e0e0;stop-opacity:1"/>
      <stop offset="100%" style="stop-color:#f0f0f0;stop-opacity:1"/>
    </linearGradient>
    <radialGradient id="cdHologram" cx="30%" cy="30%" r="70%">
      <stop offset="0%" style="stop-color:#ff69b4;stop-opacity:0.3"/>
      <stop offset="25%" style="stop-color:#9370db;stop-opacity:0.2"/>
      <stop offset="50%" style="stop-color:#00ced1;stop-opacity:0.15"/>
      <stop offset="75%" style="stop-color:#ffd700;stop-opacity:0.1"/>
      <stop offset="100%" style="stop-color:#ff69b4;stop-opacity:0.05"/>
    </radialGradient>
    <filter id="softShadow">
      <feGaussianBlur in="SourceAlpha" stdDeviation="8"/>
      <feOffset dx="6" dy="12" result="offsetblur"/>
      <feFlood flood-color="#000000" flood-opacity="0.35"/>
      <feComposite in2="offsetblur" operator="in"/>
      <feMerge>
        <feMergeNode/>
        <feMergeNode in="SourceGraphic"/>
      </feMerge>
    </filter>
    <filter id="innerShadow">
      <feGaussianBlur in="SourceAlpha" stdDeviation="2"/>
      <feOffset dx="2" dy="2"/>
      <feComposite in2="SourceAlpha" operator="arithmetic" k2="-1" k3="1"/>
      <feColorMatrix type="matrix" values="0 0 0 0 0  0 0 0 0 0  0 0 0 0 0  0 0 0 0.3 0"/>
      <feMerge>
        <feMergeNode/>
        <feMergeNode in="SourceGraphic"/>
      </feMerge>
    </filter>
  </defs>

  <!-- Studio background with gradient -->
  <rect width="400" height="500" fill="url(#studioFloor)"/>

  <!-- Subtle reflection area -->
  <rect x="0" y="400" width="400" height="100" fill="#c8c8c8" opacity="0.3"/>

  <!-- CD Case - 3D perspective with realistic depth -->
  <g filter="url(#softShadow)">
    <!-- Case back/spine area -->
    <rect x="55" y="65" width="12" height="280" fill="url(#spineGrad)" rx="2"/>

    <!-- Main jewel case body -->
    <rect x="65" y="60" width="260" height="290" fill="#1a1a1a" rx="3"/>

    <!-- Clear plastic cover with slight tint -->
    <rect x="68" y="63" width="254" height="284" fill="#f0f0f0" opacity="0.95" rx="2"/>

    <!-- Album artwork area -->
    <rect x="72" y="67" width="246" height="240" fill="url(#coverGradPony)" rx="1"/>

    <!-- Plastic case edge highlight -->
    <rect x="65" y="60" width="260" height="290" fill="url(#cdCaseShine)" rx="3"/>
  </g>

  <!-- Album Art Content - Magical Pony Kingdom -->
  <!-- Decorative castle silhouette -->
  <g transform="translate(195, 120)" opacity="0.25">
    <rect x="-40" y="0" width="20" height="60" fill="#fff"/>
    <polygon points="-40,-10 -30,0 -20,-10" fill="#fff"/>
    <rect x="20" y="0" width="20" height="60" fill="#fff"/>
    <polygon points="20,-10 30,0 40,-10" fill="#fff"/>
    <rect x="-15" y="20" width="30" height="40" fill="#fff"/>
  </g>

  <!-- Pony illustration with depth -->
  <g transform="translate(195, 180)">
    <!-- Shadow under pony -->
    <ellipse cx="0" cy="55" rx="45" ry="10" fill="#000" opacity="0.2"/>

    <!-- Pony body with shading -->
    <ellipse cx="0" cy="10" rx="35" ry="40" fill="#ffe066"/>
    <ellipse cx="-8" cy="5" rx="25" ry="30" fill="#fff8b0" opacity="0.5"/>

    <!-- Legs with dimension -->
    <rect x="-25" y="40" width="8" height="25" fill="#ffe066" rx="3"/>
    <rect x="-10" y="42" width="8" height="23" fill="#ffd700" rx="3"/>
    <rect x="5" y="42" width="8" height="23" fill="#ffe066" rx="3"/>
    <rect x="18" y="40" width="8" height="25" fill="#ffd700" rx="3"/>

    <!-- Pony head -->
    <circle cx="-25" cy="-25" r="25" fill="#ffe066"/>
    <circle cx="-30" cy="-30" r="18" fill="#fff8b0" opacity="0.4"/>

    <!-- Horn with sparkle -->
    <polygon points="-25,-50 -30,-28 -20,-28" fill="#ffd700"/>
    <polygon points="-25,-50 -27,-32 -23,-32" fill="#fffacd" opacity="0.7"/>
    <circle cx="-25" cy="-50" r="3" fill="#fff" opacity="0.8"/>

    <!-- Mane flowing -->
    <path d="M -15,-45 Q -5,-55 5,-48 Q 15,-60 20,-50 Q 30,-55 35,-45" fill="#ff69b4" stroke="#ff1493" stroke-width="1"/>
    <path d="M -10,-40 Q 0,-48 10,-42" fill="#ffb6c1" opacity="0.6"/>

    <!-- Eye with shine -->
    <ellipse cx="-35" cy="-28" rx="5" ry="6" fill="#000"/>
    <circle cx="-37" cy="-30" r="2" fill="#fff"/>

    <!-- Tail flowing -->
    <path d="M 32,15 Q 55,5 50,35 Q 48,50 35,45" stroke="#ff69b4" stroke-width="8" fill="none" stroke-linecap="round"/>
    <path d="M 35,18 Q 52,10 48,32" stroke="#ffb6c1" stroke-width="4" fill="none" stroke-linecap="round" opacity="0.6"/>
  </g>

  <!-- Stars scattered -->
  <g opacity="0.8">
    <polygon points="100,90 102,96 108,96 103,100 105,106 100,102 95,106 97,100 92,96 98,96" fill="#ffd700"/>
    <polygon points="280,100 282,106 288,106 283,110 285,116 280,112 275,116 277,110 272,106 278,106" fill="#ffd700"/>
    <polygon points="120,220 121,224 126,224 122,227 124,232 120,229 116,232 118,227 114,224 119,224" fill="#ffd700" opacity="0.7"/>
  </g>

  <!-- Title with embossed look -->
  <text x="195" y="265" font-size="20" font-weight="bold" text-anchor="middle" fill="#fff" font-family="Georgia, serif" filter="url(#innerShadow)">The Magical Pony</text>
  <text x="195" y="290" font-size="20" font-weight="bold" text-anchor="middle" fill="#fff" font-family="Georgia, serif" filter="url(#innerShadow)">Kingdom</text>

  <!-- CD visible through case bottom -->
  <g transform="translate(195, 380)">
    <!-- CD disc -->
    <circle cx="0" cy="0" r="50" fill="url(#cdDisc)"/>
    <circle cx="0" cy="0" r="50" fill="url(#cdHologram)"/>
    <circle cx="0" cy="0" r="48" fill="none" stroke="#c0c0c0" stroke-width="0.5"/>
    <!-- Center hole -->
    <circle cx="0" cy="0" r="10" fill="#404040"/>
    <circle cx="0" cy="0" r="8" fill="#606060"/>
    <!-- Track lines -->
    <circle cx="0" cy="0" r="20" fill="none" stroke="#d8d8d8" stroke-width="0.3"/>
    <circle cx="0" cy="0" r="30" fill="none" stroke="#d8d8d8" stroke-width="0.3"/>
    <circle cx="0" cy="0" r="40" fill="none" stroke="#d8d8d8" stroke-width="0.3"/>
  </g>

  <!-- Audiobook label -->
  <rect x="80" y="358" width="100" height="22" fill="#1a1a1a" rx="3"/>
  <text x="130" y="374" font-size="11" font-weight="bold" text-anchor="middle" fill="#ff69b4" font-family="Arial, sans-serif">AUDIOBOOK</text>

  <!-- Duration badge -->
  <rect x="220" y="358" width="90" height="22" fill="#1a1a1a" rx="3"/>
  <text x="265" y="374" font-size="10" text-anchor="middle" fill="#ffd700" font-family="Arial, sans-serif">2hr 15min</text>

  <!-- Professional quality text -->
  <text x="200" y="460" font-size="9" text-anchor="middle" fill="#666" font-family="Arial, sans-serif">Professional Narration | Digital Remastered</text>
</svg>
