<svg viewBox="0 0 400 500" xmlns="http://www.w3.org/2000/svg">
  <defs>
    <!-- Photorealistic lighting gradients -->
    <linearGradient id="studioFloor2" x1="0%" y1="0%" x2="0%" y2="100%">
      <stop offset="0%" style="stop-color:#f0f0f0;stop-opacity:1"/>
      <stop offset="100%" style="stop-color:#d8d8d8;stop-opacity:1"/>
    </linearGradient>
    <linearGradient id="cdCaseShine2" x1="0%" y1="0%" x2="100%" y2="0%">
      <stop offset="0%" style="stop-color:#ffffff;stop-opacity:0.5"/>
      <stop offset="10%" style="stop-color:#ffffff;stop-opacity:0"/>
      <stop offset="90%" style="stop-color:#ffffff;stop-opacity:0"/>
      <stop offset="100%" style="stop-color:#000000;stop-opacity:0.2"/>
    </linearGradient>
    <linearGradient id="coverGradPrincess" x1="0%" y1="0%" x2="100%" y2="100%">
      <stop offset="0%" style="stop-color:#b388ff;stop-opacity:1"/>
      <stop offset="50%" style="stop-color:#7c4dff;stop-opacity:1"/>
      <stop offset="100%" style="stop-color:#4a148c;stop-opacity:1"/>
    </linearGradient>
    <linearGradient id="spineGrad2" x1="0%" y1="0%" x2="100%" y2="0%">
      <stop offset="0%" style="stop-color:#3a3a3a;stop-opacity:1"/>
      <stop offset="50%" style="stop-color:#5a5a5a;stop-opacity:1"/>
      <stop offset="100%" style="stop-color:#2a2a2a;stop-opacity:1"/>
    </linearGradient>
    <linearGradient id="cdDisc2" x1="0%" y1="0%" x2="100%" y2="100%">
      <stop offset="0%" style="stop-color:#f5f5f5;stop-opacity:1"/>
      <stop offset="30%" style="stop-color:#e8e8e8;stop-opacity:1"/>
      <stop offset="70%" style="stop-color:#d8d8d8;stop-opacity:1"/>
      <stop offset="100%" style="stop-color:#e8e8e8;stop-opacity:1"/>
    </linearGradient>
    <radialGradient id="cdHologram2" cx="35%" cy="35%" r="65%">
      <stop offset="0%" style="stop-color:#e040fb;stop-opacity:0.25"/>
      <stop offset="30%" style="stop-color:#7c4dff;stop-opacity:0.2"/>
      <stop offset="60%" style="stop-color:#00e5ff;stop-opacity:0.15"/>
      <stop offset="100%" style="stop-color:#ffd740;stop-opacity:0.1"/>
    </radialGradient>
    <radialGradient id="starGlow" cx="50%" cy="50%" r="50%">
      <stop offset="0%" style="stop-color:#ffd700;stop-opacity:0.9"/>
      <stop offset="100%" style="stop-color:#ffd700;stop-opacity:0"/>
    </radialGradient>
    <filter id="softShadow2">
      <feGaussianBlur in="SourceAlpha" stdDeviation="7"/>
      <feOffset dx="5" dy="10" result="offsetblur"/>
      <feFlood flood-color="#000000" flood-opacity="0.4"/>
      <feComposite in2="offsetblur" operator="in"/>
      <feMerge>
        <feMergeNode/>
        <feMergeNode in="SourceGraphic"/>
      </feMerge>
    </filter>
    <filter id="textEmboss">
      <feGaussianBlur in="SourceAlpha" stdDeviation="1"/>
      <feOffset dx="1" dy="1"/>
      <feComposite in2="SourceAlpha" operator="arithmetic" k2="-1" k3="1"/>
      <feColorMatrix type="matrix" values="0 0 0 0 1  0 0 0 0 1  0 0 0 0 1  0 0 0 0.4 0"/>
      <feMerge>
        <feMergeNode/>
        <feMergeNode in="SourceGraphic"/>
      </feMerge>
    </filter>
  </defs>

  <!-- Studio background -->
  <rect width="400" height="500" fill="url(#studioFloor2)"/>

  <!-- Reflection surface -->
  <rect x="0" y="410" width="400" height="90" fill="#c0c0c0" opacity="0.25"/>

  <!-- CD Case with 3D depth -->
  <g filter="url(#softShadow2)">
    <!-- Spine -->
    <rect x="52" y="62" width="14" height="285" fill="url(#spineGrad2)" rx="2"/>

    <!-- Main case body -->
    <rect x="64" y="58" width="265" height="295" fill="#181818" rx="4"/>

    <!-- Clear plastic layer -->
    <rect x="68" y="62" width="257" height="287" fill="#f2f2f2" opacity="0.96" rx="3"/>

    <!-- Album art -->
    <rect x="72" y="66" width="249" height="245" fill="url(#coverGradPrincess)" rx="2"/>

    <!-- Case edge reflection -->
    <rect x="64" y="58" width="265" height="295" fill="url(#cdCaseShine2)" rx="4"/>
  </g>

  <!-- Album Art - Princess and Unicorn Star -->
  <!-- Magical stars background -->
  <g opacity="0.6">
    <circle cx="100" cy="100" r="12" fill="url(#starGlow)"/>
    <polygon points="100,88 103,97 112,97 105,103 108,112 100,106 92,112 95,103 88,97 97,97" fill="#ffd700"/>

    <circle cx="290" cy="130" r="10" fill="url(#starGlow)"/>
    <polygon points="290,120 292,127 300,127 294,132 296,139 290,134 284,139 286,132 280,127 288,127" fill="#ffd700"/>

    <polygon points="130,200 131,204 136,204 132,207 134,212 130,209 126,212 128,207 124,204 129,204" fill="#ffd700" opacity="0.8"/>
  </g>

  <!-- Unicorn with dimensional shading -->
  <g transform="translate(250, 160)">
    <!-- Body shadow -->
    <ellipse cx="0" cy="50" rx="35" ry="8" fill="#000" opacity="0.15"/>

    <!-- Body -->
    <ellipse cx="0" cy="5" rx="28" ry="35" fill="#e8e0f0"/>
    <ellipse cx="-5" cy="0" rx="20" ry="28" fill="#f5f0ff" opacity="0.5"/>

    <!-- Head -->
    <circle cx="20" cy="-30" r="22" fill="#e8e0f0"/>
    <circle cx="15" cy="-35" r="15" fill="#f5f0ff" opacity="0.4"/>

    <!-- Horn with gold -->
    <polygon points="20,-52 15,-32 25,-32" fill="#ffd700"/>
    <polygon points="20,-52 18,-36 22,-36" fill="#ffe066" opacity="0.6"/>
    <circle cx="20" cy="-52" r="2.5" fill="#fff"/>

    <!-- Magical mane -->
    <path d="M 5,-45 Q 0,-55 -10,-50 Q -15,-58 -5,-55 Q 5,-62 15,-55" fill="#ff69b4"/>
    <path d="M 10,-42 Q 5,-50 0,-45" fill="#ffb6c1" opacity="0.5"/>

    <!-- Eye -->
    <ellipse cx="30" cy="-32" rx="4" ry="5" fill="#4a148c"/>
    <circle cx="32" cy="-34" r="1.5" fill="#fff"/>

    <!-- Tail -->
    <path d="M -25,15 Q -50,10 -45,40 Q -42,52 -28,48" stroke="#ff69b4" stroke-width="7" fill="none" stroke-linecap="round"/>
  </g>

  <!-- Princess silhouette -->
  <g transform="translate(140, 170)">
    <!-- Dress with gradient -->
    <path d="M -20,-5 L -35,45 L -30,50 L 0,55 L 30,50 L 35,45 L 20,-5 Z" fill="#9c27b0"/>
    <path d="M -15,-5 L -25,40 L 0,48 L 25,40 L 15,-5 Z" fill="#ba68c8" opacity="0.4"/>

    <!-- Head -->
    <circle cx="0" cy="-20" r="18" fill="#ffdab9"/>
    <circle cx="-3" cy="-22" r="12" fill="#ffe4c4" opacity="0.4"/>

    <!-- Crown -->
    <path d="M -15,-35 L -12,-42 L -8,-38 L 0,-45 L 8,-38 L 12,-42 L 15,-35" fill="#ffd700" stroke="#ffb300" stroke-width="0.5"/>
    <circle cx="0" cy="-42" r="3" fill="#e040fb"/>

    <!-- Hair -->
    <path d="M -18,-22 Q -22,-38 0,-42 Q 22,-38 18,-22" fill="#8d6e63"/>

    <!-- Face -->
    <circle cx="-5" cy="-22" r="2" fill="#4a148c"/>
    <circle cx="5" cy="-22" r="2" fill="#4a148c"/>
  </g>

  <!-- "The Star" magical element between them -->
  <g transform="translate(195, 145)">
    <circle cx="0" cy="0" r="20" fill="url(#starGlow)" opacity="0.8"/>
    <polygon points="0,-18 5,-6 18,-6 8,3 12,15 0,8 -12,15 -8,3 -18,-6 -5,-6" fill="#ffd700"/>
    <polygon points="0,-12 3,-4 10,-4 5,1 7,9 0,5 -7,9 -5,1 -10,-4 -3,-4" fill="#fff" opacity="0.5"/>
  </g>

  <!-- Title text -->
  <text x="195" y="268" font-size="19" font-weight="bold" text-anchor="middle" fill="#ffd700" font-family="Georgia, serif" filter="url(#textEmboss)">Princess and the</text>
  <text x="195" y="293" font-size="19" font-weight="bold" text-anchor="middle" fill="#ffd700" font-family="Georgia, serif" filter="url(#textEmboss)">Unicorn Star</text>

  <!-- CD visible at bottom -->
  <g transform="translate(195, 382)">
    <circle cx="0" cy="0" r="48" fill="url(#cdDisc2)"/>
    <circle cx="0" cy="0" r="48" fill="url(#cdHologram2)"/>
    <circle cx="0" cy="0" r="46" fill="none" stroke="#b8b8b8" stroke-width="0.5"/>
    <circle cx="0" cy="0" r="10" fill="#383838"/>
    <circle cx="0" cy="0" r="8" fill="#505050"/>
    <circle cx="0" cy="0" r="18" fill="none" stroke="#d0d0d0" stroke-width="0.3"/>
    <circle cx="0" cy="0" r="28" fill="none" stroke="#d0d0d0" stroke-width="0.3"/>
    <circle cx="0" cy="0" r="38" fill="none" stroke="#d0d0d0" stroke-width="0.3"/>
  </g>

  <!-- Labels -->
  <rect x="78" y="355" width="95" height="24" fill="#181818" rx="4"/>
  <text x="125" y="372" font-size="11" font-weight="bold" text-anchor="middle" fill="#b388ff" font-family="Arial, sans-serif">AUDIOBOOK</text>

  <rect x="220" y="355" width="85" height="24" fill="#181818" rx="4"/>
  <text x="262" y="372" font-size="10" text-anchor="middle" fill="#ffd700" font-family="Arial, sans-serif">1hr 45min</text>

  <!-- Quality text -->
  <text x="200" y="462" font-size="9" text-anchor="middle" fill="#606060" font-family="Arial, sans-serif">Award-Winning Narration | Premium Audio Quality</text>
</svg>
