<svg xmlns="http://www.w3.org/2000/svg" viewBox="0 0 400 400">
  <defs>
    <!-- Icy blue studio gradient -->
    <radialGradient id="iceStudio" cx="50%" cy="30%" r="70%">
      <stop offset="0%" stop-color="#f0f8ff"/>
      <stop offset="40%" stop-color="#e0f4ff"/>
      <stop offset="100%" stop-color="#b8d4e8"/>
    </radialGradient>

    <!-- Ice blue satin for gown -->
    <linearGradient id="iceSatin" x1="0%" y1="0%" x2="100%" y2="100%">
      <stop offset="0%" stop-color="#e0f7fa"/>
      <stop offset="15%" stop-color="#b3e5fc"/>
      <stop offset="30%" stop-color="#81d4fa"/>
      <stop offset="50%" stop-color="#4fc3f7"/>
      <stop offset="70%" stop-color="#81d4fa"/>
      <stop offset="85%" stop-color="#b3e5fc"/>
      <stop offset="100%" stop-color="#e0f7fa"/>
    </linearGradient>

    <!-- Sparkle frost overlay -->
    <linearGradient id="frostOverlay" x1="0%" y1="0%" x2="0%" y2="100%">
      <stop offset="0%" stop-color="#ffffff" stop-opacity="0.7"/>
      <stop offset="50%" stop-color="#e1f5fe" stop-opacity="0.4"/>
      <stop offset="100%" stop-color="#b3e5fc" stop-opacity="0.2"/>
    </linearGradient>

    <!-- Silver metallic for crown -->
    <linearGradient id="silverMetal" x1="0%" y1="0%" x2="100%" y2="100%">
      <stop offset="0%" stop-color="#ffffff"/>
      <stop offset="20%" stop-color="#e8e8e8"/>
      <stop offset="40%" stop-color="#c0c0c0"/>
      <stop offset="60%" stop-color="#e8e8e8"/>
      <stop offset="80%" stop-color="#ffffff"/>
      <stop offset="100%" stop-color="#d0d0d0"/>
    </linearGradient>

    <!-- Ice crystal gradient -->
    <linearGradient id="iceCrystal" x1="0%" y1="0%" x2="100%" y2="100%">
      <stop offset="0%" stop-color="#ffffff"/>
      <stop offset="30%" stop-color="#e0f7fa"/>
      <stop offset="60%" stop-color="#80deea"/>
      <stop offset="100%" stop-color="#4dd0e1"/>
    </linearGradient>

    <!-- Frosted glow filter -->
    <filter id="frostGlow" x="-50%" y="-50%" width="200%" height="200%">
      <feGaussianBlur in="SourceGraphic" stdDeviation="2" result="blur"/>
      <feColorMatrix in="blur" type="matrix" values="1 0 0 0 0.1  0 1 0 0 0.2  0 0 1 0 0.3  0 0 0 1 0"/>
      <feComposite in="SourceGraphic" operator="over"/>
    </filter>

    <!-- Dress shadow -->
    <filter id="iceShadow" x="-20%" y="-20%" width="140%" height="140%">
      <feGaussianBlur in="SourceAlpha" stdDeviation="4"/>
      <feOffset dx="3" dy="5"/>
      <feColorMatrix type="matrix" values="0 0 0 0 0.4  0 0 0 0 0.5  0 0 0 0 0.6  0 0 0 0.3 0"/>
      <feMerge>
        <feMergeNode/>
        <feMergeNode in="SourceGraphic"/>
      </feMerge>
    </filter>

    <!-- Snowflake pattern -->
    <g id="snowflake">
      <line x1="0" y1="-8" x2="0" y2="8" stroke="currentColor" stroke-width="1.5"/>
      <line x1="-7" y1="-4" x2="7" y2="4" stroke="currentColor" stroke-width="1.5"/>
      <line x1="-7" y1="4" x2="7" y2="-4" stroke="currentColor" stroke-width="1.5"/>
      <line x1="0" y1="-6" x2="-2" y2="-4" stroke="currentColor" stroke-width="1"/>
      <line x1="0" y1="-6" x2="2" y2="-4" stroke="currentColor" stroke-width="1"/>
      <line x1="0" y1="6" x2="-2" y2="4" stroke="currentColor" stroke-width="1"/>
      <line x1="0" y1="6" x2="2" y2="4" stroke="currentColor" stroke-width="1"/>
    </g>
  </defs>

  <!-- Studio background with icy feel -->
  <rect width="400" height="400" fill="url(#iceStudio)"/>

  <!-- Subtle icy floor reflection -->
  <ellipse cx="200" cy="385" rx="160" ry="20" fill="#a0c4d8" opacity="0.3"/>

  <!-- Main Ice Queen gown with shadow -->
  <g filter="url(#iceShadow)">
    <!-- Mannequin neck -->
    <ellipse cx="200" cy="92" rx="10" ry="14" fill="#f5e6d3" stroke="#d4b896" stroke-width="0.5"/>

    <!-- Bodice with off-shoulder design -->
    <path d="M 150 110 Q 160 100 175 105 L 175 115 Q 185 108 200 108 Q 215 108 225 115 L 225 105 Q 240 100 250 110 L 245 145 Q 200 155 155 145 Z"
          fill="url(#iceSatin)" stroke="#4fc3f7" stroke-width="1"/>
    <!-- Bodice shimmer highlight -->
    <path d="M 160 112 Q 175 106 200 108 Q 225 106 240 112 L 238 135 Q 200 142 162 135 Z"
          fill="#e0f7fa" opacity="0.5"/>

    <!-- Off-shoulder sleeves -->
    <ellipse cx="155" cy="108" rx="18" ry="10" fill="url(#iceSatin)" stroke="#4fc3f7" stroke-width="0.8"/>
    <ellipse cx="155" cy="108" rx="12" ry="6" fill="#e0f7fa" opacity="0.4"/>
    <ellipse cx="245" cy="108" rx="18" ry="10" fill="url(#iceSatin)" stroke="#4fc3f7" stroke-width="0.8"/>
    <ellipse cx="245" cy="108" rx="12" ry="6" fill="#e0f7fa" opacity="0.4"/>

    <!-- Sheer cape/train flowing from shoulders -->
    <path d="M 135 115 Q 100 200 90 350" stroke="#81d4fa" stroke-width="1" fill="none" opacity="0.4"/>
    <path d="M 140 115 Q 110 200 105 350" stroke="#81d4fa" stroke-width="0.5" fill="none" opacity="0.3"/>
    <path d="M 265 115 Q 300 200 310 350" stroke="#81d4fa" stroke-width="1" fill="none" opacity="0.4"/>
    <path d="M 260 115 Q 290 200 295 350" stroke="#81d4fa" stroke-width="0.5" fill="none" opacity="0.3"/>

    <!-- Cinched waist with crystal belt -->
    <ellipse cx="200" cy="150" rx="35" ry="8" fill="url(#silverMetal)" stroke="#80deea" stroke-width="1"/>
    <circle cx="200" cy="150" r="5" fill="url(#iceCrystal)"/>
    <circle cx="185" cy="150" r="3" fill="#e0f7fa"/>
    <circle cx="215" cy="150" r="3" fill="#e0f7fa"/>

    <!-- Flowing ball gown skirt -->
    <!-- Base layer - deepest blue -->
    <ellipse cx="200" cy="270" rx="115" ry="120" fill="#4fc3f7"/>
    <!-- Middle layer - ice blue -->
    <ellipse cx="200" cy="265" rx="110" ry="115" fill="url(#iceSatin)"/>
    <!-- Top layer - frost overlay -->
    <ellipse cx="200" cy="260" rx="105" ry="108" fill="url(#frostOverlay)"/>

    <!-- Skirt fabric draping lines -->
    <path d="M 95 200 Q 100 270 85 360" stroke="#4fc3f7" stroke-width="1.5" fill="none" opacity="0.4"/>
    <path d="M 130 175 Q 125 260 115 360" stroke="#4fc3f7" stroke-width="1" fill="none" opacity="0.3"/>
    <path d="M 165 165 Q 158 250 150 360" stroke="#4fc3f7" stroke-width="0.8" fill="none" opacity="0.25"/>
    <path d="M 235 165 Q 242 250 250 360" stroke="#4fc3f7" stroke-width="0.8" fill="none" opacity="0.25"/>
    <path d="M 270 175 Q 275 260 285 360" stroke="#4fc3f7" stroke-width="1" fill="none" opacity="0.3"/>
    <path d="M 305 200 Q 300 270 315 360" stroke="#4fc3f7" stroke-width="1.5" fill="none" opacity="0.4"/>

    <!-- Shimmer highlights on skirt -->
    <path d="M 145 200 Q 150 250 148 310" stroke="#ffffff" stroke-width="4" fill="none" opacity="0.4"/>
    <path d="M 255 200 Q 250 250 252 310" stroke="#ffffff" stroke-width="4" fill="none" opacity="0.4"/>
  </g>

  <!-- Snowflake Crown -->
  <g filter="url(#frostGlow)" transform="translate(200, 68)">
    <!-- Crown base band -->
    <ellipse cx="0" cy="0" rx="32" ry="12" fill="url(#silverMetal)" stroke="#b0bec5" stroke-width="1"/>

    <!-- Central large snowflake -->
    <g transform="translate(0, -25) scale(1.8)" color="#80deea">
      <use href="#snowflake"/>
    </g>
    <!-- Center crystal -->
    <circle cx="0" cy="-25" r="5" fill="url(#iceCrystal)"/>
    <circle cx="0" cy="-25" r="2.5" fill="#ffffff" opacity="0.8"/>

    <!-- Side snowflakes -->
    <g transform="translate(-22, -15) scale(1.2)" color="#b3e5fc">
      <use href="#snowflake"/>
    </g>
    <circle cx="-22" cy="-15" r="3" fill="url(#iceCrystal)"/>

    <g transform="translate(22, -15) scale(1.2)" color="#b3e5fc">
      <use href="#snowflake"/>
    </g>
    <circle cx="22" cy="-15" r="3" fill="url(#iceCrystal)"/>

    <!-- Small outer snowflakes -->
    <g transform="translate(-35, -5) scale(0.8)" color="#e0f7fa">
      <use href="#snowflake"/>
    </g>
    <g transform="translate(35, -5) scale(0.8)" color="#e0f7fa">
      <use href="#snowflake"/>
    </g>

    <!-- Icicle drops -->
    <path d="M -15 8 L -14 18 L -13 8" fill="url(#iceCrystal)"/>
    <path d="M 0 10 L 1 22 L 2 10" fill="url(#iceCrystal)"/>
    <path d="M 15 8 L 16 18 L 17 8" fill="url(#iceCrystal)"/>
  </g>

  <!-- Scattered ice crystals and snowflakes -->
  <g filter="url(#frostGlow)">
    <!-- Floating snowflakes -->
    <g transform="translate(70, 140) scale(0.7)" color="#80deea">
      <use href="#snowflake"/>
    </g>
    <g transform="translate(330, 160) scale(0.6)" color="#b3e5fc">
      <use href="#snowflake"/>
    </g>
    <g transform="translate(90, 300) scale(0.5)" color="#e0f7fa">
      <use href="#snowflake"/>
    </g>
    <g transform="translate(310, 280) scale(0.55)" color="#80deea">
      <use href="#snowflake"/>
    </g>

    <!-- Ice sparkle points -->
    <polygon points="60,200 63,210 73,210 65,216 68,226 60,220 52,226 55,216 47,210 57,210" fill="#ffffff" opacity="0.8"/>
    <polygon points="340,220 342,227 349,227 344,231 346,238 340,234 334,238 336,231 331,227 338,227" fill="#e0f7fa" opacity="0.9"/>

    <!-- Small crystal dots -->
    <circle cx="120" cy="180" r="3" fill="#ffffff"/>
    <circle cx="280" cy="190" r="2.5" fill="#e0f7fa"/>
    <circle cx="100" cy="250" r="2" fill="#b3e5fc"/>
    <circle cx="300" cy="320" r="2" fill="#ffffff"/>
  </g>

  <!-- Product label -->
  <rect x="50" y="362" width="300" height="30" rx="5" fill="#1a3a4a" opacity="0.9"/>
  <text x="200" y="382" font-family="Georgia, serif" font-size="14" font-weight="bold" text-anchor="middle" fill="#80deea">ICE QUEEN COSTUME</text>
</svg>