<svg xmlns="http://www.w3.org/2000/svg" viewBox="0 0 400 400">

  <!-- Solid light purple background -->
  <rect width="400" height="400" fill="#F3E8FF"/>

  <!-- HAIR behind head -->
  <ellipse cx="200" cy="118" rx="52" ry="55" fill="#7C3AED" stroke="#4C1D95" stroke-width="3"/>
  <path d="M 148 120 Q 120 170 122 240 Q 124 290 145 315 Q 128 295 128 240 Q 126 170 154 120 Z" fill="#7C3AED" stroke="#4C1D95" stroke-width="3"/>
  <path d="M 252 120 Q 280 170 278 240 Q 276 290 255 315 Q 272 295 272 240 Q 274 170 246 120 Z" fill="#7C3AED" stroke="#4C1D95" stroke-width="3"/>
  <path d="M 133 270 Q 115 290 130 305 Q 145 315 140 300" fill="none" stroke="#4C1D95" stroke-width="3" stroke-linecap="round"/>
  <path d="M 267 270 Q 285 290 270 305 Q 255 315 260 300" fill="none" stroke="#4C1D95" stroke-width="3" stroke-linecap="round"/>

  <!-- CROWN -->
  <rect x="162" y="72" width="76" height="14" rx="4" fill="#fbbf24" stroke="#92400e" stroke-width="3"/>
  <polygon points="200,40 192,72 208,72" fill="#fbbf24" stroke="#92400e" stroke-width="3" stroke-linejoin="round"/>
  <polygon points="178,52 171,72 185,72" fill="#fbbf24" stroke="#92400e" stroke-width="3" stroke-linejoin="round"/>
  <polygon points="222,52 215,72 229,72" fill="#fbbf24" stroke="#92400e" stroke-width="3" stroke-linejoin="round"/>
  <polygon points="163,60 158,72 168,72" fill="#fbbf24" stroke="#92400e" stroke-width="3" stroke-linejoin="round"/>
  <polygon points="237,60 232,72 242,72" fill="#fbbf24" stroke="#92400e" stroke-width="3" stroke-linejoin="round"/>
  <circle cx="200" cy="47" r="5" fill="#EC4899" stroke="#92400e" stroke-width="2"/>
  <circle cx="178" cy="58" r="4" fill="#EC4899" stroke="#92400e" stroke-width="2"/>
  <circle cx="222" cy="58" r="4" fill="#EC4899" stroke="#92400e" stroke-width="2"/>
  <circle cx="198" cy="45" r="1.5" fill="#ffffff"/>
  <circle cx="176" cy="56" r="1.2" fill="#ffffff"/>
  <circle cx="220" cy="56" r="1.2" fill="#ffffff"/>

  <!-- FACE -->
  <circle cx="200" cy="135" r="48" fill="#FDDCB5" stroke="#92400e" stroke-width="3.5"/>
  <path d="M 154 120 Q 165 82 200 80 Q 235 82 246 120 Q 230 100 200 98 Q 170 100 154 120 Z" fill="#7C3AED" stroke="#4C1D95" stroke-width="2"/>

  <!-- Left eye -->
  <ellipse cx="183" cy="132" rx="11" ry="12" fill="#ffffff" stroke="#1a1a1a" stroke-width="3"/>
  <circle cx="183" cy="134" r="7" fill="#7C3AED"/>
  <circle cx="183" cy="134" r="3.5" fill="#1a1a1a"/>
  <circle cx="180" cy="131" r="2" fill="#ffffff"/>
  <!-- Right eye -->
  <ellipse cx="217" cy="132" rx="11" ry="12" fill="#ffffff" stroke="#1a1a1a" stroke-width="3"/>
  <circle cx="217" cy="134" r="7" fill="#7C3AED"/>
  <circle cx="217" cy="134" r="3.5" fill="#1a1a1a"/>
  <circle cx="214" cy="131" r="2" fill="#ffffff"/>

  <!-- Eyelashes left -->
  <line x1="175" y1="122" x2="172" y2="116" stroke="#1a1a1a" stroke-width="2" stroke-linecap="round"/>
  <line x1="183" y1="120" x2="182" y2="114" stroke="#1a1a1a" stroke-width="2" stroke-linecap="round"/>
  <line x1="191" y1="122" x2="192" y2="116" stroke="#1a1a1a" stroke-width="2" stroke-linecap="round"/>
  <!-- Eyelashes right -->
  <line x1="209" y1="122" x2="208" y2="116" stroke="#1a1a1a" stroke-width="2" stroke-linecap="round"/>
  <line x1="217" y1="120" x2="217" y2="114" stroke="#1a1a1a" stroke-width="2" stroke-linecap="round"/>
  <line x1="225" y1="122" x2="228" y2="116" stroke="#1a1a1a" stroke-width="2" stroke-linecap="round"/>

  <!-- Nose and blush -->
  <circle cx="200" cy="148" r="2.5" fill="#e8a87c"/>
  <ellipse cx="172" cy="150" rx="10" ry="6" fill="#f9a8d4" opacity="0.6"/>
  <ellipse cx="228" cy="150" rx="10" ry="6" fill="#f9a8d4" opacity="0.6"/>
  <!-- Smile -->
  <path d="M 188 160 Q 200 172 212 160" fill="none" stroke="#92400e" stroke-width="3" stroke-linecap="round"/>

  <!-- NECK -->
  <rect x="190" y="180" width="20" height="22" rx="4" fill="#FDDCB5" stroke="#92400e" stroke-width="3"/>

  <!-- DRESS BODICE -->
  <path d="M 160 195 Q 175 185 200 185 Q 225 185 240 195 L 245 250 Q 200 260 155 250 Z" fill="#C084FC" stroke="#6D28D9" stroke-width="3.5"/>
  <path d="M 180 190 Q 200 198 220 190" fill="none" stroke="#fbbf24" stroke-width="2.5" stroke-linecap="round"/>

  <!-- Waist bow -->
  <rect x="155" y="248" width="90" height="12" rx="5" fill="#fbbf24" stroke="#92400e" stroke-width="2.5"/>
  <ellipse cx="182" cy="254" rx="12" ry="7" fill="#fcd34d" stroke="#92400e" stroke-width="2"/>
  <ellipse cx="218" cy="254" rx="12" ry="7" fill="#fcd34d" stroke="#92400e" stroke-width="2"/>
  <circle cx="200" cy="254" r="5" fill="#f59e0b" stroke="#92400e" stroke-width="2"/>

  <!-- SKIRT -->
  <path d="M 155 258 Q 100 290 80 360 L 320 360 Q 300 290 245 258 Z" fill="#C084FC" stroke="#6D28D9" stroke-width="3.5"/>
  <path d="M 165 265 Q 120 295 105 355 L 295 355 Q 280 295 235 265 Z" fill="#DDD6FE" stroke="#7C3AED" stroke-width="2.5"/>
  <path d="M 80 360 Q 110 348 140 358 Q 170 368 200 358 Q 230 348 260 358 Q 290 368 320 358" fill="none" stroke="#6D28D9" stroke-width="2.5" stroke-linecap="round"/>

  <!-- Skirt stars -->
  <polygon points="118,310 121,320 132,320 123,326 126,336 118,330 110,336 113,326 104,320 115,320" fill="#fbbf24" stroke="#92400e" stroke-width="1.5"/>
  <polygon points="282,310 285,320 296,320 287,326 290,336 282,330 274,336 277,326 268,320 279,320" fill="#fbbf24" stroke="#92400e" stroke-width="1.5"/>
  <polygon points="200,305 202,312 209,312 203,316 205,323 200,319 195,323 197,316 191,312 198,312" fill="#fbbf24" stroke="#92400e" stroke-width="1.5"/>

  <!-- ARMS -->
  <path d="M 158 205 Q 130 230 125 255 Q 122 265 130 268 Q 138 270 142 260 Q 148 238 165 218 Z" fill="#FDDCB5" stroke="#92400e" stroke-width="3"/>
  <circle cx="130" cy="268" r="10" fill="#FDDCB5" stroke="#92400e" stroke-width="3"/>
  <path d="M 242 205 Q 270 230 275 255 Q 278 265 270 268 Q 262 270 258 260 Q 252 238 235 218 Z" fill="#FDDCB5" stroke="#92400e" stroke-width="3"/>
  <circle cx="270" cy="268" r="10" fill="#FDDCB5" stroke="#92400e" stroke-width="3"/>

  <!-- MAGIC WAND -->
  <rect x="272" y="220" width="6" height="52" rx="3" fill="#7C3AED" stroke="#4C1D95" stroke-width="2" transform="rotate(20, 275, 245)"/>
  <polygon points="290,195 293,206 305,206 295,213 298,224 290,217 282,224 285,213 275,206 287,206" fill="#fbbf24" stroke="#92400e" stroke-width="2.5"/>
  <circle cx="290" cy="209" r="4" fill="#ffffff" opacity="0.7"/>

  <!-- SHOES -->
  <ellipse cx="158" cy="362" rx="22" ry="9" fill="#EC4899" stroke="#9D174D" stroke-width="3"/>
  <rect x="148" y="353" width="14" height="12" rx="3" fill="#EC4899" stroke="#9D174D" stroke-width="3"/>
  <ellipse cx="242" cy="362" rx="22" ry="9" fill="#EC4899" stroke="#9D174D" stroke-width="3"/>
  <rect x="238" y="353" width="14" height="12" rx="3" fill="#EC4899" stroke="#9D174D" stroke-width="3"/>

  <!-- SPARKLES -->
  <path d="M 68 80 L 70 70 L 72 80 L 82 82 L 72 84 L 70 94 L 68 84 L 58 82 Z" fill="#fbbf24" stroke="#92400e" stroke-width="1.5"/>
  <path d="M 318 65 L 320 55 L 322 65 L 332 67 L 322 69 L 320 79 L 318 69 L 308 67 Z" fill="#fbbf24" stroke="#92400e" stroke-width="1.5"/>
  <circle cx="90" cy="170" r="4" fill="#fbbf24" stroke="#92400e" stroke-width="1.5"/>
  <circle cx="310" cy="160" r="3" fill="#fbbf24" stroke="#92400e" stroke-width="1.5"/>
  <circle cx="75" cy="300" r="3" fill="#EC4899" stroke="#9D174D" stroke-width="1.5"/>
  <circle cx="325" cy="310" r="4" fill="#EC4899" stroke="#9D174D" stroke-width="1.5"/>

</svg>