<svg viewBox="0 0 400 400" xmlns="http://www.w3.org/2000/svg">
  <rect width="400" height="400" fill="#d1fae5"/>
  <ellipse cx="200" cy="385" rx="180" ry="25" fill="#6ee7b7" stroke="#2d2d2d" stroke-width="2"/>
  <ellipse cx="290" cy="310" rx="55" ry="42" fill="#ffffff" stroke="#2d2d2d" stroke-width="3"/>
  <circle cx="268" cy="295" r="22" fill="#ffffff" stroke="#2d2d2d" stroke-width="3"/>
  <circle cx="295" cy="285" r="20" fill="#ffffff" stroke="#2d2d2d" stroke-width="3"/>
  <circle cx="318" cy="295" r="22" fill="#ffffff" stroke="#2d2d2d" stroke-width="3"/>
  <ellipse cx="248" cy="308" rx="24" ry="22" fill="#e5e7eb" stroke="#2d2d2d" stroke-width="3"/>
  <circle cx="241" cy="304" r="5" fill="#2d2d2d"/>
  <circle cx="239" cy="302" r="2" fill="#ffffff"/>
  <ellipse cx="240" cy="315" rx="5" ry="3" fill="#f9a8d4"/>
  <ellipse cx="262" cy="296" rx="8" ry="5" fill="#e5e7eb" stroke="#2d2d2d" stroke-width="2"/>
  <rect x="265" y="348" width="14" height="30" rx="6" fill="#e5e7eb" stroke="#2d2d2d" stroke-width="3"/>
  <rect x="285" y="348" width="14" height="30" rx="6" fill="#e5e7eb" stroke="#2d2d2d" stroke-width="3"/>
  <rect x="305" y="348" width="14" height="30" rx="6" fill="#e5e7eb" stroke="#2d2d2d" stroke-width="3"/>
  <path d="M155,220 Q110,250 100,370 L210,370 Q200,250 155,220Z" fill="#7c3aed" stroke="#2d2d2d" stroke-width="4"/>
  <ellipse cx="155" cy="168" rx="45" ry="48" fill="#fde68a" stroke="#2d2d2d" stroke-width="4"/>
  <path d="M112,155 Q155,120 198,155 L195,175 Q155,145 115,175Z" fill="#fbbf24" stroke="#2d2d2d" stroke-width="3"/>
  <line x1="115" y1="175" x2="112" y2="210" stroke="#fbbf24" stroke-width="8" stroke-linecap="round"/>
  <ellipse cx="140" cy="165" rx="9" ry="10" fill="#2d2d2d"/>
  <circle cx="137" cy="162" r="3" fill="#ffffff"/>
  <ellipse cx="170" cy="165" rx="9" ry="10" fill="#2d2d2d"/>
  <circle cx="167" cy="162" r="3" fill="#ffffff"/>
  <ellipse cx="126" cy="178" rx="10" ry="7" fill="#f9a8d4" opacity="0.7"/>
  <ellipse cx="184" cy="178" rx="10" ry="7" fill="#f9a8d4" opacity="0.7"/>
  <path d="M140,185 Q155,197 170,185" fill="none" stroke="#2d2d2d" stroke-width="3" stroke-linecap="round"/>
  <ellipse cx="122" cy="240" rx="16" ry="32" fill="#7c3aed" stroke="#2d2d2d" stroke-width="3"/>
  <ellipse cx="188" cy="240" rx="16" ry="32" fill="#7c3aed" stroke="#2d2d2d" stroke-width="3"/>
  <circle cx="122" cy="268" r="12" fill="#fde68a" stroke="#2d2d2d" stroke-width="3"/>
  <circle cx="188" cy="268" r="12" fill="#fde68a" stroke="#2d2d2d" stroke-width="3"/>
  <path d="M188,268 Q240,265 245,230 Q250,200 230,195 Q210,190 208,210" fill="none" stroke="#92400e" stroke-width="7" stroke-linecap="round"/>
  <text x="48" y="85" font-size="26" fill="#fbbf24" stroke="#2d2d2d" stroke-width="1">☀</text>
  <circle cx="340" cy="70" r="8" fill="#ffffff" stroke="#2d2d2d" stroke-width="2"/>
  <circle cx="355" cy="60" r="10" fill="#ffffff" stroke="#2d2d2d" stroke-width="2"/>
  <circle cx="325" cy="60" r="8" fill="#ffffff" stroke="#2d2d2d" stroke-width="2"/>
</svg>
