<svg viewBox="0 0 400 400" xmlns="http://www.w3.org/2000/svg">
  <rect width="400" height="400" fill="#E9D5FF"/>
  <ellipse cx="210" cy="270" rx="110" ry="80" fill="#ffffff" stroke="#2d2d2d" stroke-width="4"/>
  <ellipse cx="175" cy="200" rx="40" ry="55" fill="#ffffff" stroke="#2d2d2d" stroke-width="4"/>
  <ellipse cx="170" cy="145" rx="55" ry="50" fill="#ffffff" stroke="#2d2d2d" stroke-width="4"/>
  <polygon points="170,60 155,115 185,115" fill="#FFD700" stroke="#2d2d2d" stroke-width="3"/>
  <line x1="160" y1="95" x2="180" y2="88" stroke="#2d2d2d" stroke-width="2"/>
  <line x1="157" y1="107" x2="183" y2="100" stroke="#2d2d2d" stroke-width="2"/>
  <polygon points="205,110 220,80 235,112" fill="#ffffff" stroke="#2d2d2d" stroke-width="3"/>
  <polygon points="210,108 220,88 230,110" fill="#f9a8d4"/>
  <path d="M205,100 Q240,80 250,130 Q240,160 220,180 Q200,160 210,140 Q225,120 205,100Z" fill="#c084fc" stroke="#2d2d2d" stroke-width="3"/>
  <path d="M215,100 Q250,70 265,120 Q258,155 238,170" fill="#f9a8d4" stroke="#2d2d2d" stroke-width="2.5"/>
  <ellipse cx="155" cy="140" rx="12" ry="13" fill="#2d2d2d"/>
  <circle cx="151" cy="136" r="4" fill="#ffffff"/>
  <ellipse cx="138" cy="163" rx="6" ry="4" fill="#f9a8d4"/>
  <path d="M140,172 Q155,182 168,172" fill="none" stroke="#2d2d2d" stroke-width="3" stroke-linecap="round"/>
  <rect x="135" y="330" width="28" height="55" rx="10" fill="#ffffff" stroke="#2d2d2d" stroke-width="4"/>
  <rect x="175" y="335" width="28" height="50" rx="10" fill="#ffffff" stroke="#2d2d2d" stroke-width="4"/>
  <rect x="240" y="330" width="28" height="55" rx="10" fill="#ffffff" stroke="#2d2d2d" stroke-width="4"/>
  <rect x="280" y="335" width="28" height="50" rx="10" fill="#ffffff" stroke="#2d2d2d" stroke-width="4"/>
  <rect x="135" y="375" width="28" height="12" rx="5" fill="#c084fc" stroke="#2d2d2d" stroke-width="3"/>
  <rect x="175" y="377" width="28" height="10" rx="5" fill="#c084fc" stroke="#2d2d2d" stroke-width="3"/>
  <rect x="240" y="375" width="28" height="12" rx="5" fill="#c084fc" stroke="#2d2d2d" stroke-width="3"/>
  <rect x="280" y="377" width="28" height="10" rx="5" fill="#c084fc" stroke="#2d2d2d" stroke-width="3"/>
  <path d="M315,260 Q360,240 355,290 Q350,330 320,320 Q340,300 330,275 Q320,255 315,260Z" fill="#c084fc" stroke="#2d2d2d" stroke-width="3"/>
  <path d="M318,265 Q365,250 358,300" fill="#f9a8d4" stroke="#2d2d2d" stroke-width="2.5"/>
  <text x="55" y="80" font-size="28" fill="#FFD700" stroke="#2d2d2d" stroke-width="1">★</text>
  <text x="320" y="100" font-size="20" fill="#f9a8d4" stroke="#2d2d2d" stroke-width="1">★</text>
  <text x="80" y="330" font-size="16" fill="#c084fc" stroke="#2d2d2d" stroke-width="1">★</text>
</svg>
