<svg xmlns="http://www.w3.org/2000/svg" viewBox="0 0 45 45"><g fill="#000" stroke="#fff" stroke-width="1.5" stroke-linejoin="round"><path d="M22 6 Q 14 6 14 14 Q 14 18 18 18 Q 22 18 22 14 Q 22 11 19 11 Q 17 11 17 13" fill="none" stroke-width="4" stroke="#000"/><path d="M22 6 Q 14 6 14 14 Q 14 18 18 18 Q 22 18 22 14 Q 22 11 19 11 Q 17 11 17 13" fill="none" stroke-width="3"/><path d="M22 14 L23 36" stroke-width="6" stroke="#000"/><path d="M22 14 L23 36" stroke-width="4"/><path d="M16 9 L19 12 M20 9 L22 11 M18 16 L21 18 M22 19 L22 22 M22 25 L23 28 M23 30 L23 33" stroke-width="2" fill="none"/><rect x="11" y="36" width="23" height="3"/><rect x="9" y="39" width="27" height="4" rx="1.5"/></g></svg>
