<svg xmlns="http://www.w3.org/2000/svg" viewBox="0 0 45 45"><g fill="#000" stroke="#fff" stroke-width="1.5" stroke-linejoin="round"><rect x="13" y="3" width="19" height="6" fill="#dc2626"/><rect x="11" y="9" width="23" height="4"/><rect x="13" y="13" width="19" height="14"/><circle cx="18" cy="18" r="1.3" fill="#fff" stroke="none"/><circle cx="27" cy="18" r="1.3" fill="#fff" stroke="none"/><rect x="17" y="22" width="11" height="3" fill="#fff" stroke="none"/><path d="M18 22 L18 25 M20 22 L20 25 M22.5 22 L22.5 25 M25 22 L25 25 M27 22 L27 25" stroke="#000" stroke-width="0.5" fill="none"/><rect x="11" y="27" width="23" height="4"/><path d="M13 31 Q 22.5 35 32 31 L32 38 L13 38 Z"/><rect x="9" y="38" width="27" height="4" rx="1.5"/></g></svg>
