<svg xmlns="http://www.w3.org/2000/svg" viewBox="0 0 45 45"><g fill="#000" stroke="#fff" stroke-width="1.5" stroke-linejoin="round"><path d="M14 4 L14 10 M11 6 L17 6 M14 6 L11 9 M14 6 L17 9" fill="none" stroke-width="1.3" stroke="#fff"/><path d="M31 4 L31 10 M28 6 L34 6 M31 6 L28 9 M31 6 L34 9" fill="none" stroke-width="1.3" stroke="#fff"/><path d="M14 38 Q 13 30 16 25 Q 12 22 14 17 Q 16 12 22 10 Q 26 9 28 11 Q 28 14 26 15 Q 31 16 33 21 Q 35 28 33 33 Q 33 36 34 38 Z"/><circle cx="20" cy="19" r="1.4" fill="#fff" stroke="none"/><circle cx="16" cy="24" r="1.2" fill="#dc2626" stroke="none"/><path d="M14 38 L34 38 L34 41 L14 41 Z"/></g></svg>
