<svg xmlns="http://www.w3.org/2000/svg" viewBox="0 0 45 45"><g fill="#000" stroke="#fff" stroke-width="1.5" stroke-linejoin="round"><path d="M22.5 3 L24 7 L28 7 L25 10 L26 14 L22.5 12 L19 14 L20 10 L17 7 L21 7 Z"/><path d="M22.5 13 L14 22 L18 22 L11 30 L17 30 L9 38 L36 38 L28 30 L34 30 L27 22 L31 22 Z"/><circle cx="17" cy="26" r="1" fill="#dc2626" stroke="none"/><circle cx="27" cy="26" r="1" fill="#dc2626" stroke="none"/><circle cx="22.5" cy="32" r="1" fill="#dc2626" stroke="none"/><circle cx="14" cy="34" r="1" fill="#dc2626" stroke="none"/><circle cx="31" cy="34" r="1" fill="#dc2626" stroke="none"/><rect x="20" y="38" width="5" height="3" fill="#78350f" stroke="#fff"/><rect x="8" y="40" width="29" height="3" rx="1"/></g></svg>
