<svg xmlns="http://www.w3.org/2000/svg" viewBox="0 0 45 45"><g fill="#fff" stroke="#000" stroke-width="1.5" stroke-linejoin="round"><path d="M22.5 3 L11 16 L34 16 Z" fill="#dc2626"/><circle cx="22.5" cy="3" r="2"/><path d="M11 16 L34 16 L34 20 L11 20 Z"/><circle cx="22.5" cy="24" r="6"/><circle cx="20" cy="23" r="0.9" fill="#000" stroke="none"/><circle cx="25" cy="23" r="0.9" fill="#000" stroke="none"/><circle cx="22.5" cy="26.5" r="1" fill="#dc2626" stroke="none"/><path d="M14 28 Q 16 36 22.5 36 Q 29 36 31 28 Q 28 32 22.5 32 Q 17 32 14 28 Z"/><rect x="11" y="36" width="23" height="3" fill="#dc2626"/><rect x="11" y="39" width="23" height="3" fill="#dc2626"/><rect x="9" y="40" width="27" height="3" rx="1.5"/></g></svg>
