<svg xmlns="http://www.w3.org/2000/svg" viewBox="0 0 45 45"><g fill="#000" stroke="#fff" stroke-width="1.5" stroke-linejoin="round"><circle cx="22.5" cy="5" r="1.6"/><circle cx="10" cy="8" r="1.6"/><circle cx="35" cy="8" r="1.6"/><circle cx="15.5" cy="5" r="1.6"/><circle cx="29.5" cy="5" r="1.6"/><path d="M10 9 L13 19 L15.5 6.5 L18 19 L22.5 6 L27 19 L29.5 6.5 L32 19 L35 9 L37 22 L8 22 Z"/><path d="M8 22 Q 22.5 25 37 22 L34 31 L11 31 Z"/><path d="M11 25 L34 25 M11 28 L34 28" fill="none" stroke-width="1"/><rect x="10" y="31" width="25" height="3"/><rect x="9" y="34" width="27" height="4" rx="1.5"/></g></svg>
