<svg xmlns="http://www.w3.org/2000/svg" viewBox="0 0 45 45"><g fill="#fff" stroke="#000" stroke-width="1.5" stroke-linejoin="round"><path d="M9 10 L9 16 L12 16 L12 13 L16 13 L16 16 L19 16 L19 13 L23 13 L23 16 L26 16 L26 13 L30 13 L30 16 L33 16 L33 13 L36 13 L36 10 Z" stroke-linejoin="miter"/><rect x="11" y="16" width="23" height="4"/><path d="M14 20 L13 24 L13 33 L11 33 L11 38 L34 38 L34 33 L32 33 L32 24 L31 20 Z"/><path d="M14 26 L31 26 M14 30 L31 30" fill="none"/><rect x="10" y="36" width="25" height="4" rx="1"/></g></svg>
